<?xml version="1.0" encoding="utf-8"?>
<svg version="1.1" id="Layer_1" xmlns="http://www.w3.org/2000/svg" xmlns:xlink="http://www.w3.org/1999/xlink" x="0px" y="0px"
	 viewBox="0 0 912.8 133.2" style="enable-background:new 0 0 912.8 133.2;" xml:space="preserve">
<g>
	<g>
		<path d="M585.5,106.6l-1.8-1l1.1-1.9c0.9-1.5,4.3-7.7,15.5-28.7c9-16.8,18.6-34.8,28.4-53.5l0.8-1.5h12.6l0.8,1.5
			c9.6,18.7,19.2,37,28.5,54.4c11.5,21.7,14.3,26.8,14.6,27.3l1,1.9l-1.8,1l-1-1.9c-0.4-0.7-5.3-9.9-14.6-27.4
			c-9.3-17.4-18.9-35.7-28.5-54.4l-0.2-0.4h-10.1l-0.2,0.4c-9.8,18.7-19.4,36.7-28.4,53.5c-11.2,20.9-14.7,27.2-15.5,28.7
			L585.5,106.6z"/>
		<path d="M598.5,112.5l-1.9-0.9l0.7-1.5c0.4-0.8,2.7-5.3,4.6-8.9c1.2-2.4,6.6-12.7,12-23.1c5.9-11.4,11.9-22.9,12.5-24
			c2.1-4.2,4.1-7.9,5.8-11.3l2.6-5l13.9,27c6.6,12.8,16.5,32.2,18.4,36c2.6,5.1,4.3,8.6,4.6,9.3l0.7,1.6l-1.9,0.8l-0.7-1.6
			c-0.2-0.4-1.5-3.1-4.6-9.2c-1.9-3.8-11.8-23.1-18.4-36l-12-23.4l-0.7,1.4c-1.7,3.3-3.7,7.1-5.8,11.2c-0.6,1.2-6.6,12.7-12.5,24
			c-5.4,10.4-10.8,20.7-12,23.1c-3.6,6.9-4.4,8.5-4.5,8.9L598.5,112.5z"/>
		<path d="M721,109.6h-2.1v-1.9c0.1-2.5,0.1-7.4,0.2-14.6c0.1-7.2,0.1-16,0.1-26.9V54.6c0-5.7-0.1-16-0.4-30.8l-0.1-3h2.8
			c0.5,0,2.9,0,7.2-0.1c3.6-0.1,6.9-0.1,10.1-0.1c5.8,0,10.3,0.2,14.5,0.6c4.2,0.4,8.3,1.4,12.2,2.8c5.2,1.9,9.4,4.8,12.5,8.6
			c3.2,3.9,4.9,8.6,4.9,13.9c0,6.8-2.4,12.5-7.3,17c-2.9,2.7-5.8,5-8.5,6.8l-0.8,0.6l0.7,0.7c5.7,5.6,11.8,11.4,18.4,17.3l14.5,13.1
			l-1.4,1.5l-3.3-3L784,90.4c-6.6-5.9-12.8-11.8-18.5-17.4l-2.6-2.5l3-2c2.6-1.7,5.4-4,8.2-6.6c4.4-4.1,6.6-9.3,6.6-15.5
			c0-4.8-1.5-9-4.4-12.6c-2.9-3.5-6.8-6.2-11.7-7.9c-3.8-1.4-7.7-2.3-11.7-2.7c-4.1-0.4-8.5-0.6-14.3-0.6c-3.2,0-6.5,0.1-10.1,0.1
			c-4.3,0.1-6.8,0.1-7.2,0.1h-0.6v0.8c0.2,14.8,0.4,25.1,0.4,30.8V66c0,10.9,0,19.7-0.1,26.9s-0.2,12.1-0.2,14.6L721,109.6z"/>
		<path d="M786.7,112.2l-0.9-0.9c-1.2-1.1-5.6-5.3-11.4-11c-6.2-6-15.7-15.4-30-29.5l-1.1-1l0.6-4l1.9-0.4c1.6-0.4,3.9-1.2,6.8-2.6
			c2.9-1.3,5.3-2.7,7.2-4.2c1.5-1.2,2.9-2.7,4-4.5c1-1.6,1.5-3.9,1.5-6.8c0-2.5-0.7-4.6-2.2-6.3c-1.6-1.9-3.9-3.3-6.8-4.3
			c-2.6-0.9-5.4-1.4-8.3-1.5c-3.1-0.2-5.9-0.3-8.4-0.3h-3.3v0.8c-0.1,6.5-0.1,12.2-0.1,17.3c0,6.1,0,10.4,0,12.9
			c0,5.7,0,13.5,0.1,23.3s0.1,16,0.2,18.5v1.9h-2.1v-1.9c-0.1-2.5-0.1-8.7-0.2-18.5c-0.1-9.8-0.1-17.6-0.1-23.3c0-2.5,0-6.8,0-12.9
			c0-5.1,0.1-10.9,0.1-17.4v-2.9h5.4c2.6,0,5.4,0.1,8.5,0.3c3,0.2,6,0.7,8.8,1.6c3.3,1,5.9,2.7,7.8,4.9c1.8,2.2,2.7,4.7,2.7,7.7
			c0,3.3-0.6,6-1.9,7.9c-1.3,2-2.8,3.7-4.5,5.1c-2,1.6-4.6,3.1-7.6,4.5c-3,1.4-5.5,2.3-7.2,2.7l-0.5,0.1l-0.2,1.6l0.3,0.3
			c14.2,14.1,23.8,23.4,30,29.5c5.8,5.7,10.2,9.8,11.3,10.9l0.9,0.9L786.7,112.2z"/>
		<path d="M866.2,110.3v-1.9c0-2.5-0.1-7.6-0.2-15.1c-0.1-7.6-0.1-15.1-0.1-22.4c0-7.7,0-13.7,0.1-18.1l0.2-18.7h2.9
			c9.8,0,17.3,0,22.4,0.1c5.7,0,9,0.1,9.7,0.1h1.7v2.1h-1.7c-0.8,0-4,0-9.7-0.1c-5.1,0-12.6-0.1-22.4-0.1h-0.8l-0.2,16.6
			c-0.1,4.4-0.1,10.5-0.1,18.1c0,7.4,0,14.8,0.1,22.4c0.1,7.6,0.1,12.6,0.2,15.1v1.9H866.2z"/>
		<path d="M852.9,110.4l-2.1-0.1l0.1-1.9c0.1-2.5,0.2-7.5,0.3-15.3c0.1-7.7,0.1-15.3,0.1-22.7V53c0-3.7-0.1-9-0.2-16.1v-0.8h-8.6
			c-5.3,0-9.9,0-13.8,0.1c-6.4,0.1-10,0.1-10.6,0.1h-1.7v-2.1h1.7c0.6,0,4.2,0,10.6-0.1c3.9,0,8.5-0.1,13.8-0.1h10.7v2.9
			c0.1,7.1,0.2,12.4,0.2,16.1v17.4c0,7.4,0,15-0.1,22.7c-0.1,7.9-0.2,12.9-0.3,15.4L852.9,110.4z"/>
		<path d="M859.1,24c-8.1,0-15.7,0-22.8-0.1c-7.1,0-13.2-0.1-18.2-0.1h-1.7v-2h1.7c5,0,11,0,18.2,0.1S851,22,859.1,22
			c11.7,0,21.5,0,29.4-0.1l14.4-0.1v2.1L888.5,24C880.6,24,870.8,24,859.1,24z"/>
		<path d="M358.4,110.2l-2.1-0.1l0.1-2c0-1,0.1-4.7,0.2-11c0.1-6.5,0.2-15.4,0.2-26.4c0-4.5,0-10.5-0.1-18c0-7.5-0.1-15.4-0.3-23.8
			v-2l15.2-5.9l1.4,1.4c0.9,0.9,8.6,9,23.2,24.2c12.1,12.6,23.9,24.7,34.9,35.9l1.4,1.5v-2c0-6-0.1-13.8-0.3-23.2
			c-0.2-15.1-0.3-26.4-0.3-33.6v-1.9h2.1v1.9c0,7.3,0.1,18.6,0.3,33.6c0.2,9.5,0.2,17.2,0.3,23.2l0.1,7.2l-5.1-5.1
			c-11-11.2-22.7-23.2-34.9-35.9C380.1,33,372.4,25,371.5,24l-0.4-0.4l-12.6,4.9v0.6c0.2,8.4,0.3,16.3,0.3,23.8
			c0.1,7.5,0.1,13.5,0.1,18c0,11-0.1,20-0.2,26.5c-0.1,6.4-0.2,10-0.2,11.1L358.4,110.2z"/>
		<path d="M435.7,112.1l-1.4-1.5c-15.1-16.7-29.4-32.1-42.7-45.7l-18.1-18.6v2c0,9.2,0.1,19.9,0.2,31.9c0.2,17.6,0.3,25.7,0.3,28
			v1.9h-2.1v-1.9c-0.1-2.3-0.2-10.4-0.3-28c-0.1-12.1-0.2-22.7-0.2-31.9v-7.2l21.8,22.3c13.3,13.6,27.7,29,42.8,45.8l0.4,0.4
			l11.1-4.5v-0.6c0-0.5-0.1-4.2-0.2-11.1c-0.1-7-0.2-16.4-0.2-28.1c0-3.7,0-9.7,0.1-18.1s0.2-15.8,0.3-22.3V23h2.1v1.9
			c-0.1,6.5-0.2,13.9-0.3,22.3c-0.1,8.4-0.1,14.4-0.1,18.1c0,11.7,0.1,21.1,0.2,28c0.1,7,0.2,10.7,0.2,11.1v2L435.7,112.1z"/>
		<g id="XMLID_450_">
			<path d="M521.3,98.7c-4.9,0-9.5,0-13.7,0l-10-0.1l-0.1-10.8c0-3.8-0.1-8.8-0.1-14.9V70h7.6c3.4,0,6.2,0,8.7,0
				c6.6,0,13.8,0,21.8,0.1l7.9,0.1c2.8,0,4.4,0,4.6,0h1.9v2.1h-2c-0.2,0-1.8,0-4.6,0l-7.9-0.1c-7.9-0.1-15.2-0.1-21.7-0.1
				c-2.4,0-5.3,0-8.7,0h-5.5v0.8c0,6.1,0,11.1,0.1,14.9l0.1,8.7l8,0.1c4.2,0,8.8,0,13.7,0c7.5,0,13.8,0,19-0.1c5.1,0,8-0.1,8.6-0.1
				h1.9v2.1h-2c-0.6,0-3.5,0-8.6,0.1C535.1,98.7,528.8,98.7,521.3,98.7z"/>
			<path d="M484.3,111h-3l0.1-3c0.1-2.3,0.2-7.7,0.3-15.5c0.1-8,0.1-16.3,0.1-24.8c0-2.5,0-5.4,0-8.7v-1.1h1.1
				c5.4,0,20.5,0.1,21.7,0.1c3.1,0,5.9,0,8.3,0c8.9,0,16.8,0,23.8-0.1s10.8-0.1,11.2-0.1h1.9v2.1h-1.9c-0.5,0-4.2,0-11.2,0.1
				s-14.9,0.1-23.8,0.1c-2.4,0-5.2,0-8.3,0c-1.2,0-14.6,0-20.7-0.1c0,2.9,0,5.4,0,7.6c0,8.5,0,16.8-0.1,24.8
				c-0.1,7.8-0.2,13.2-0.3,15.6v0.9h0.9c3.7,0,8.2,0,13.6-0.1c5.3,0,11.2-0.1,17.6-0.1c9.2,0,17,0,23.3,0.1c6.3,0,9.6,0.1,10.1,0.1
				h1.9v2.1h-2c-0.5,0-3.8,0-10.1-0.1c-6.3,0-14-0.1-23.2-0.1c-6.4,0-12.3,0-17.6,0.1C492.6,110.9,488,111,484.3,111z"/>
			<path d="M549.7,36.6c0,0-61.5-0.2-67.1-0.2v-2.1c5.6,0,67.1,0.2,67.1,0.2V36.6z"/>
			<rect x="482.4" y="22.1" width="67.3" height="2.1"/>
		</g>
		<g>
			<path d="M275.2,113.4l-0.1-2.1c4.5-0.3,11-1.2,15.5-2.7c5.8-1.9,11.3-4.9,16.3-9c4.6-3.8,8.4-8.5,11.2-14.2
				c2.9-5.8,4.3-12.1,4.3-18.9c0-6.5-1.3-12.6-3.9-18.3S312,37.5,307,33.3c-4.1-3.5-9.5-6.4-15.6-8.5c-4.6-1.6-11.7-2.6-16.4-2.9
				l0.1-2.1c4.8,0.3,12.1,1.4,16.9,3c6.3,2.2,11.9,5.3,16.3,8.9c5.3,4.4,9.3,9.7,12,15.7c2.7,5.9,4.1,12.4,4.1,19.2
				c0,7.1-1.5,13.8-4.5,19.8c-2.9,5.9-6.9,10.9-11.8,14.9c-5.2,4.2-10.9,7.4-17,9.4C286.2,112.2,279.5,113.1,275.2,113.4z"/>
			<path d="M275.3,101.2l-0.2-2.1c1.4-0.2,6-0.8,8.8-1.7c3.8-1.3,7.3-3.2,10-5.3c3.5-2.7,6.3-6.2,8.6-10.5c2.2-4.2,3.3-8.9,3.3-14
				c0-4.9-1-9.9-3.1-14.8c-2-4.7-5.1-8.7-9.2-11.9c-2.7-2.1-6-3.9-9.5-5.1c-2.8-1-7.5-1.6-8.9-1.7l0.2-2.1c1.4,0.2,6.4,0.8,9.4,1.8
				c3.8,1.3,7.3,3.2,10.1,5.5c4.4,3.5,7.7,7.8,9.9,12.8c2.2,5.1,3.3,10.4,3.3,15.6c0,5.5-1.2,10.5-3.5,15c-2.4,4.5-5.4,8.3-9.1,11.2
				c-2.9,2.3-6.6,4.3-10.7,5.7C281.6,100.4,277.1,101,275.3,101.2z"/>
			<path d="M268.8,101.2c-4.3-0.3-6.2-0.9-9-1.9c-3.7-1.3-7-3.1-9.9-5.4c-4-3.1-7.2-7.1-9.4-11.7c-2.2-4.5-3.3-9.8-3.3-15.7
				c0-5.1,1.1-10.2,3.3-15c2.2-4.7,5.3-8.8,9.2-12c3.3-2.7,6.5-4.6,10.2-5.8c2.8-1,4.6-1.6,9-1.8L269,34c-4.1,0.2-5.7,0.8-8.4,1.7
				c-3.4,1.2-6.4,2.9-9.5,5.4c-3.7,3-6.6,6.8-8.6,11.3c-2.1,4.5-3.1,9.2-3.1,14.1c0,5.5,1.1,10.5,3.1,14.8c2.1,4.4,5.1,8.1,8.9,11
				c2.8,2.2,5.8,3.8,9.3,5.1c2.7,1,4.4,1.5,8.4,1.8L268.8,101.2z"/>
			<path d="M268.8,113.4c-6.5-0.3-10.5-1.2-15.2-2.7c-5.6-1.8-10.8-4.5-15.7-8.4c-5.2-4-9.4-9.1-12.6-15.2
				c-3.2-6.1-4.9-13.1-4.9-20.7c0-6.8,1.3-13.1,3.8-18.6c2.6-5.7,6.4-10.8,11.4-15.1c4.7-4.2,10.3-7.4,16.5-9.6
				c5.5-1.9,10.6-2.9,16.7-3.2l0.1,2.1c-5.9,0.3-10.7,1.2-16.1,3.1c-6,2.1-11.3,5.2-15.8,9.2c-4.7,4.2-8.4,9-10.8,14.4
				c-2.4,5.3-3.6,11.3-3.6,17.8c0,7.3,1.6,13.9,4.6,19.8c3,5.8,7.1,10.7,12.1,14.5c4.7,3.7,9.6,6.3,15,8c4.6,1.5,8.3,2.3,14.6,2.6
				L268.8,113.4z"/>
		</g>
	</g>
	<rect id="XMLID_92_" x="170.1" y="29.4" width="1.2" height="74.5"/>
	<g id="XMLID_15_">
		<g id="LORxpm.tif_4_">
			<g id="XMLID_144_">
				<path id="XMLID_304_" d="M58.3,109.7c-0.6-0.2-1.2-0.5-1.7-0.7c-0.9-0.3-1.8-0.6-2.7-0.8c-0.2-0.1-0.4,0.2-0.5,0.2
					c-0.5-0.4-1-0.7-1.5-1.1c-0.1,0.3-0.2,0.2-0.2,0.5c-1.2-1-1.5-1.3-2-0.9c-0.7-0.5-1.2-1-1.9-1.5c-0.2-0.1-0.4-0.1-0.7-0.1
					c-0.9,0.2-0.9,0.2-1.2-0.7c-0.2,0.1-0.6,0.2-0.9,0.3c0-0.8-0.4-1-1.1-1.1c-0.2-0.1-0.5-0.4-0.7-0.6c-0.4-0.5-0.7-1-1.5-1.1
					c-0.4-0.1-0.7-0.5-1.1-0.9c-0.5-0.5-0.8-1.1-1.3-1.6c-0.2-0.2-0.6-0.2-0.9-0.4c-0.1-0.7-0.4-1.1-1.2-1c-0.1,0-0.3-0.2-0.3-0.2
					c0-0.7-0.5-0.8-0.9-1.2c-0.3-0.2-0.6-0.7-0.6-1.1c0-0.7-0.3-0.9-1-0.7c0-0.5,0.2-1.2-0.6-1.2c-0.1,0-0.1-0.2-0.2-0.3
					c-0.4-0.5-0.2-1.3-1.1-1.6c-0.2-0.1-0.3-0.7-0.5-1.1c-0.3-0.8-1-1.5-1.4-2.3c-0.2-0.5-1.1-1-0.7-1.9c0.1-0.2-0.2-0.7-0.4-1
					c-0.4-1.1-0.7-2.1-1.2-3.2c-0.2-0.6-0.7-1-0.8-1.6c-0.2-0.5-0.1-1.1-0.2-1.6c-0.2-1.4-0.6-2.9-0.8-4.3c-0.2-1.1-0.2-2.1-0.3-3.2
					c-0.2-1.7-0.3-3.5-0.5-5.3c0-0.7,0-1.3,0.2-1.9c0.2-0.9,0.5-1.8,0.4-2.8c0-0.5,0.2-1,0.3-1.5c0.4-1.3,0.7-2.6,1.2-3.9
					c1.2-3,2.2-6.1,3.9-8.9c0.9-1.5,2.1-2.9,3-4.4c0.2-0.4,0.3-1.2,0.7-1.4c0.6-0.4,0.5-1.2,1.4-1.5c1-0.3,1.6-1.4,2.5-2.1
					c1.8-1.5,3.7-3,5.6-4.4c1.6-1.1,3.2-2,4.9-2.9c0.8-0.4,1.8-0.7,2.6-1s1.7-0.8,2.6-1.2c0.9-0.4,1.8-0.9,2.9-0.7
					c0.7,0.1,1.3-0.2,2-0.4c1.3-0.2,2.6-0.3,3.9-0.6c0.7-0.1,1.2-0.4,2-0.7c0.6,0.7,2.2,0.7,2.7-0.1c0.5,0.2,0.9,0.4,1.3,0.4
					c2.7,0.3,5.4,0.6,8.1,1c1.2,0.2,2.3,0.7,3.5,1.1c2.3,1,4.6,1.9,6.7,3c1.6,0.8,3.1,1.9,4.5,3c2,1.6,3.9,3.2,5.6,5.1
					c1.6,1.7,3,3.7,4.4,5.7c2.1,3,3.4,6.3,4.6,9.8c0.7,1.8,1,3.8,1.3,5.7c0.5,2.6,0.6,5.3,0.5,7.9c0,2.1-0.2,4.3-0.6,6.3
					c-0.5,2.6-1.2,5.3-2.1,7.8c-0.8,2.3-2.1,4.4-3.4,6.6c-1,1.7-2.1,3.3-3.2,4.9c-0.9,1.4-2.1,2.5-3.4,3.6c-0.9,0.7-1.6,1.6-2.6,2.4
					c-1.1,0.9-2.3,1.7-3.5,2.6c-1.4,1-2.9,1.9-4.4,2.7c-2.1,1.2-4.2,2.1-6.6,2.6c-2.1,0.4-4.2,1-6.3,1.4c-0.8,0.2-1.6,0.2-2.5,0.2
					c-1.5,0.2-3,0.2-4.4,0.3c-0.7,0-1.2-0.2-1.9-0.2c-1.3,0-2.6-0.4-3.9-0.6c-0.7-0.1-1.5-0.1-2.1-0.4
					C58.5,109.5,58.3,109.7,58.3,109.7z M104.8,62.1c0-0.2,0-0.4,0-0.6c-0.3-1.3-0.6-2.7-0.9-4c-0.8-3.3-2.1-6.4-4-9.2
					c-1.2-1.7-2.5-3.3-3.7-5c-1.6-2.2-3.9-3.9-6.1-5.5c-1.3-1-2.6-1.8-4.1-2.6c-2-1-3.9-1.8-6-2.6c-0.9-0.3-1.9-0.5-2.9-0.7
					c-1.6-0.4-3.3-0.8-4.9-1.1c-1.3-0.2-2.7-0.1-4-0.1c-1.2,0-2.6-0.2-3.7,0c-1.7,0.2-3.5,0.7-5.3,1.1c-1.6,0.4-3.4,0.8-4.9,1.5
					c-3.2,1.2-6.1,3-8.8,5c-3.5,2.7-6.5,6-9,9.7c-1.9,2.9-3.3,6-4.4,9.3c-1.3,3.7-1.8,7.6-2.1,11.4c-0.3,3.9,0.3,7.7,1.4,11.3
					c0.9,3.1,2.4,6.1,4,8.9c0.2,0.4,0.6,0.7,1.1,0.6c1.9,0,3.7-0.1,5.6-0.1c4,0,8.1,0.1,12,0.2c0.7,0,0.7-0.2,0.7-0.8
					c-0.1-0.5-0.2-1-0.1-1.5c0.1-1.3,0.2-2.6,0.2-4c0-2.6,0-5.1-0.2-7.7c-0.1-1.2,0.2-2.6-0.4-3.8c-0.1-0.2,0-0.5,0-0.7
					c0.1-0.4,0.2-0.8,0.2-1.3c0-1,0-2,0-3c0-0.5-0.2-1-0.2-1.5c0-0.6-0.5-1.2,0.2-1.8c0.7-0.7,1.6-0.7,2.4-0.1
					c0.6,0.6,1.1,1.2,1.6,1.9c0.8,0.9,1.6,1.7,2.4,2.6c2.9,3.1,5.7,6.3,8.6,9.5c1.6,1.7,3.2,3.5,4.9,5.2c0.7,0.7,1.3,1.4,2.1,2.1
					c0.1-0.4,0.1-0.5,0.1-0.7c0-2,0-3.9,0-5.9c0-2.2,0-4.4-0.1-6.6c0-2.6-0.2-5-0.1-7.6c0.1-1.5,0.5-1.6,1.8-1.2
					c0.6,0.4,1.3,0.4,2.1,0.4c1.8,0,3.5-0.2,5.3-0.2c5.2-0.2,10.4-0.4,15.6-0.7C102.4,62.3,103.5,62.2,104.8,62.1z M36.8,90.9
					c0.2,0.4,0.3,0.5,0.4,0.7c1.6,2.3,3.5,4.4,5.8,6.2c1.6,1.3,3.2,2.6,4.9,3.6c1.9,1.2,3.9,2,6.1,2.8c1.7,0.7,3.5,1.2,5.3,1.6
					c2.7,0.5,5.4,0.7,8.2,0.6c2-0.1,3.9-0.2,5.8-0.6c3.2-0.5,6.3-1.5,9.3-2.7c1.3-0.6,2.6-1.2,3.8-2c1.4-0.8,2.9-1.6,4.1-2.7
					c2.1-1.7,4-3.7,5.9-5.6c2.1-2.1,3.5-4.7,4.9-7.3c1.1-2.1,1.9-4.4,2.6-6.7c1.5-4.6,1.7-9.3,1.4-14.1c0-0.2-0.2-0.7-0.5-0.7
					c-0.4-0.2-0.9-0.2-1.3-0.2c-1,0-2,0-3,0.1c-3.8,0.2-7.5,0.3-11.3,0.4c-3,0.1-6.1,0.2-9.2,0.3c-0.3,0-0.7-0.1-0.7,0.5
					c0,1.5,0,3,0.1,4.5c0.2,3.3,0.3,6.7,0.5,10c0.1,2.3,0.2,4.5,0.2,6.8c0,0.5-0.2,1.1-0.3,1.6c-1.1,2.8-4.7,2.3-5.6,1.2
					c-1-1.2-2-2.3-3-3.5c-0.1-0.2-3.2-3.4-3.8-4.2c-0.1-0.1-0.2-0.2-0.2-0.1c-0.5,0.1-0.7-0.2-0.7-0.7c-0.3-0.9-1.1-1.6-1.9-2.1
					c-0.5-0.2-0.8-0.4-0.8-1c0-0.7-0.7-1.5-1.2-1.3c-0.6,0.2-1.9-2.1-2.6-2.9c-0.2-0.2-0.2-0.3-0.4-0.4c-0.2-0.1-1.2-1-1.2-1.2
					c-0.2-0.7-0.6-1.3-0.9-2c0-0.1-0.2-0.1-0.4-0.2c0,0.3,0,0.7,0,0.9c0.1,1.2,0.2,2.5,0.2,3.7c0.1,2.1,0.2,4,0.2,6.1
					c0.1,3.3,0.6,6.5,0.1,9.8c-0.2,1.2-0.7,1.7-1.7,1.2c-1.2-0.5-2.4-0.3-3.5-0.4c-1.8-0.2-3.5,0.1-5.3,0.1c-0.6,0-1.1-0.2-1.6-0.2
					c-0.7,0-1.3,0.2-2,0.2C41.1,90.9,39.1,90.9,36.8,90.9z"/>
				<path id="XMLID_182_" d="M54.1,109.9c0.2-0.1,0.5-0.2,0.9-0.4c0.6-0.2,1,0.1,1.6,0.4c1.1,0.7,1.2,1.2,1.1,2.6
					c-0.1,0.4-0.1,0.9,0,1.2c1.7,0,3.4,0,4.9,0c1.6,0,3.3,0.1,4.9,0.1c1.6,0,3.2,0,4.9-0.2c0.6-0.1,1,0.2,1.6-0.1
					c0.7,0.2,1.2,0.1,1.9-0.2c0.2-0.1,0.5,0,0.7,0c0.7-0.1,1.6-0.1,2.3-0.2c0.6-0.2,1.1,0.1,1.1,0.7c0,1.2-0.2,1.5-1.2,1.8
					c-0.1,0-0.2,0-0.3,0c-1.2-0.1-2.2-0.2-3.4-0.2c-1.4,0-2.8,0-4.1,0c-1.7,0-3.4,0-5.1,0.1c-1.1,0.1-2.1,0.2-3.1,0.3
					c-0.1,0-0.2-0.1-0.3-0.1c-0.6-0.2-1.2-0.4-1.6,0.2c-1.1-0.5-1.1-0.5-1.2,0.1c-0.2-0.1-0.6-0.3-0.8-0.2c-0.2,0.1-0.6,0.5-0.6,0.7
					c0,1.1,0.1,2.1,0.2,3.2c0.1,0.7,0.2,1.6,0.2,2.4c1.1,0,2.2,0,3.4,0c2.2,0,4.4-0.1,6.6-0.1c2.8,0,5.5,0,8.3,0
					c0.9,0,1.8,0,2.7,0.1c1.4,0.2,2.4,2,1.7,3.1c-0.2,0.2-0.5,0.5-0.7,0.5c-2,0.1-3.9,0-5.9,0c-3.3,0-6.7,0-10,0c-2,0-3.9,0-5.9,0
					c-1,0-2.1,0.1-3,0.2c-1,0.1-1.4-0.4-1.1-1.3c0.1-0.2,0.1-0.3,0.1-0.4c-0.1-2.1-0.2-4-0.2-6.1C54.1,115.6,54.1,112.8,54.1,109.9z
					"/>
				<path id="XMLID_166_" d="M71.6,99.8c-2.6,0-5.2,0-7.7,0c-2.5,0-4.9,0-7.4,0.1c-0.2,0-0.5,0.1-0.7,0.1c-0.8,0.2-1.5,0-1.7-0.8
					c-0.2-0.4,0.2-1,0.4-1.5c0.1-0.2,0.2-0.5,0.3-0.7c0.4-0.8,0.9-0.8,1.6-0.8c2.1,0,4.1-0.1,6.3-0.1c1.8,0,3.7,0.1,5.5,0.1
					c2.1,0,4.3,0,6.4,0c1.4,0,2.8-0.1,4.1,0c0.5,0,1,0.3,1.3,0.7c0.4,0.5,0.7,1.2,0.9,1.8c0.1,0.2-0.2,0.7-0.3,0.7
					c-0.9,0.2-1.9,0.5-2.9,0.5C75.5,100,73.6,99.9,71.6,99.8C71.6,99.9,71.6,99.9,71.6,99.8z"/>
			</g>
		</g>
		<g id="XMLID_17_">
			<path id="XMLID_60_" d="M9.9,48.8c0-0.2,0.1-0.3,0.2-0.5c1.1-2.8,3.3-4,6.8-2.8c3.4,1.2,4.9,3.5,3.9,6.2
				c-0.1,0.2-0.2,0.3-0.2,0.5c-0.2,0.2-0.3,0.2-0.7,0.2c-1.2-0.3-3-1-4.6-1.5c-1.7-0.6-3.4-1.1-5.1-1.6C10,49,9.9,48.9,9.9,48.8z
				 M19.9,51.4c1.1-1.9-0.7-4.1-3.5-5c-2.6-0.9-5-0.2-5.6,2.1c1.5,0.5,3,1,4.5,1.5C17,50.4,18.5,50.9,19.9,51.4z"/>
			<path id="XMLID_57_" d="M20.7,39.9l-4.4-2.7c-0.2-0.1-0.7-0.4-0.8-0.5c-0.2-0.1-0.3-0.4-0.2-0.7c0.7-1,1.9-3.2,2.2-3.5
				c0.1-0.1,0.3-0.1,0.4,0c0.3,0.2,0.2,0.5,0.1,0.7c-0.2,0.4-1.5,2.3-1.7,2.7l-0.2,0.2l3.7,2.2c0,0,1.3-2.1,1.6-2.7
				c0,0,0.1-0.2,0.2-0.3c0.1-0.2,0.3-0.1,0.4,0c0.2,0.2,0.3,0.4,0.2,0.6c-0.2,0.3-1.7,2.9-1.7,2.9l2.2,1.4l1.3,0.8
				c0.2,0.2,0.3,0.1,0.4-0.1c0.4-0.7,1.1-1.6,1.2-2.1l0.7-1.1c0.1-0.2,0.4-0.2,0.5-0.1c0.2,0.2,0.2,0.3,0.2,0.6
				c-0.7,1.2-1.3,2.2-2.1,3.5c-0.2,0.3-0.5,0.5-0.9,0.3L20.7,39.9z"/>
			<path id="XMLID_54_" d="M27.2,24.5c-0.1,0.2-0.3,0.3-0.7,0.2c-0.6-0.4-1.2-0.3-1.8,0.2c-0.9,0.8-0.8,1.7-0.2,2.3
				c0.6,0.6,1.6,0.7,3.4,0.6c2.6-0.1,3.7,0.2,4.6,1.2c1.2,1.2,0.9,2.6-0.2,3.8c-1.1,1.1-2.7,1.2-3.7,0.2c-0.2-0.2-0.2-0.5,0-0.7
				c0.2-0.2,0.4-0.2,0.7-0.1c0.7,0.7,1.7,0.7,2.5-0.1c0.8-0.8,0.9-1.7,0.2-2.5c-0.9-0.9-1.9-0.9-3.9-0.9c-2,0-3.3,0-4-0.8
				c-0.8-0.8-1.2-2.1,0.2-3.5c0.8-0.9,1.8-1.2,3-0.4C27.2,24,27.2,24.2,27.2,24.5z"/>
			<path id="XMLID_47_" d="M38.1,27.2c-0.2,0.2-0.5,0.1-0.6-0.1c-0.1-0.2,0-0.4,0.2-0.6c0.3-0.2,0.5-0.3,0.8-0.6
				c-1.7-2.6-3.5-5.3-5.3-8l-0.8,0.6c-0.2,0.2-0.5,0.1-0.6-0.1c-0.1-0.2-0.1-0.4,0.2-0.6c0.9-0.6,1.8-1.2,2.6-1.7
				c0.2-0.1,0.4,0,0.6,0.1c0.1,0.2,0.1,0.4-0.1,0.6c-0.3,0.2-0.7,0.4-1,0.7c0.3,0.5,0.7,1.1,1,1.5l4.4,6.5c0.3-0.2,0.6-0.4,1-0.7
				c0.3-0.1,0.5,0,0.6,0.2c0,0.2,0,0.3-0.2,0.5L38.1,27.2z"/>
			<path id="XMLID_44_" d="M46.8,16.7c-0.2,0.2-0.5,0-0.6-0.2c-0.1-0.2-0.1-0.4,0.2-0.6c0.5-0.2,1.2-0.5,1.8-0.7
				c0.3-0.2,0.7-0.2,0.9,0.2c0.5,0.9,1.1,2.6,1.6,3.9c0.1,0.2,0.1,0.4,0,0.7c-0.2,0.6-1.2,1.2-1.7,1.5c-2.2,1-4.5-0.7-5.8-3.7
				c-1.3-3-1.2-5.9,1.2-7c0.8-0.3,1.8-0.5,2.2-0.2c0.2,0.1,0.2,0.2,0.2,0.4c0,0.2-0.2,0.4-0.5,0.3c-0.3-0.1-1.1,0-1.6,0.2
				c-2,0.9-1.8,3.6-0.7,5.9c1.2,2.9,3.1,3.8,4.6,3.2c0.4-0.2,1.2-0.7,1.2-1.1c-0.5-1.2-0.9-2.1-1.4-3.3c-0.1-0.2-0.2-0.3-0.5-0.2
				L46.8,16.7z"/>
			<path id="XMLID_35_" d="M54.4,7.6c0.2-0.1,0.4-0.1,0.6,0.1c1.3,1.6,2.6,3,3.8,4.5c0.9,1.1,1.8,2.2,2.7,3.4
				c-0.9-3.9-1.6-7.2-2-8.6c0-0.3,0.1-0.5,0.3-0.6s0.6,0.1,0.6,0.3s0.3,1.6,0.4,1.9c0.6,2.6,1.1,4.5,1.8,8.1
				c0.1,0.3,0.2,0.8-0.2,0.9c-0.2,0.1-0.4-0.1-0.6-0.4c-1-1.2-2.1-2.6-3.4-4.1c-1-1.2-2-2.2-2.8-3.3c0.3,1,0.7,2.3,0.9,3.3
				c0.6,2.2,0.8,3.2,1.2,5.1c0.1,0.3-0.2,0.5-0.3,0.6c-0.2,0.1-0.5-0.1-0.5-0.3c-0.3-1.8-0.7-3.1-1.2-4.9c-0.4-1.6-1-3.7-1.5-5.3
				C54.1,7.9,54.2,7.7,54.4,7.6z"/>
			<path id="XMLID_31_" d="M78.4,6.8c0.1-0.2,0.2-0.7,0.6-0.6c0.5,0.2,1.3,0.4,2.1,0.8c1.2,0.6,2,1.7,1.7,3.2
				c-0.2,1.3-1.2,2.5-3.4,2.6c0.6,1.6,1.2,3,1.9,4.9c0.1,0.2,0,0.4-0.1,0.5c-0.2,0.2-0.5,0.2-0.7-0.2c-0.7-1.6-1.4-3.5-2.1-5.3
				c-0.2,0-0.2,0-0.4,0c-0.4,2-0.7,3.7-0.9,4.4c-0.1,0.2-0.3,0.4-0.5,0.3c-0.2,0-0.4-0.2-0.4-0.6C77,13.7,77.7,10.6,78.4,6.8z
				 M78.3,12c2.5,0.2,3.4-0.7,3.6-1.9c0.2-0.9-0.2-1.9-1.5-2.5c-0.3-0.2-0.7-0.2-1.2-0.4C79,8.6,78.6,10.3,78.3,12z"/>
			<path id="XMLID_30_" d="M88.7,15.8l2.1-4.7c0.1-0.2,0.3-0.7,0.4-0.8c0.1-0.2,0.3-0.3,0.6-0.2c1.1,0.5,3.5,1.5,3.9,1.8
				c0.1,0.1,0.1,0.3,0.1,0.4c-0.2,0.3-0.4,0.3-0.7,0.2c-0.4-0.2-2.5-1.2-3-1.3L91.9,11l-1.7,3.9c0,0,2.2,1.1,3,1.3
				c0,0,0.2,0.1,0.3,0.2c0.2,0.1,0.2,0.3,0.1,0.4c-0.2,0.2-0.3,0.3-0.6,0.2c-0.3-0.2-3.1-1.4-3.1-1.4l-1.1,2.4l-0.7,1.4
				c-0.2,0.3-0.1,0.3,0.2,0.4c0.7,0.3,1.7,0.8,2.1,1l1.2,0.5c0.2,0.1,0.2,0.4,0.2,0.5c-0.2,0.2-0.2,0.3-0.6,0.2
				c-1.3-0.6-2.3-1.1-3.7-1.6c-0.3-0.2-0.6-0.5-0.4-0.8L88.7,15.8z"/>
			<path id="XMLID_28_" d="M106.2,19.9c-0.2,0.1-0.5,0.1-0.5-0.2c-0.1-0.4-0.4-0.9-0.8-1.2c-1.7-1.3-3.7,0.4-5.2,2.5
				c-1.8,2.6-2.1,4.4-0.8,5.3c0.5,0.4,1,0.7,1.6,0.5c0.3,0,0.5,0.2,0.5,0.4c0,0.2-0.2,0.4-0.4,0.5c-0.7,0.1-1.4-0.1-2.2-0.7
				c-1.8-1.4-1.3-3.9,0.7-6.6c1.9-2.6,4.3-4.1,6.3-2.6c0.7,0.5,1.2,1.2,1.2,1.6C106.6,19.6,106.4,19.8,106.2,19.9z"/>
			<path id="XMLID_27_" d="M104.2,31.9c-0.2-0.2-0.2-0.5,0-0.6c0.2-0.1,0.3-0.1,0.6,0.1c0.2,0.2,0.4,0.4,0.7,0.7
				c2.2-2.1,4.8-4.2,7.1-6.5l-0.7-0.7c-0.2-0.2-0.1-0.5,0-0.6c0.2-0.2,0.4-0.2,0.7,0.1c0.7,0.8,1.4,1.6,2.1,2.4
				c0.1,0.2,0.1,0.4,0,0.6c-0.2,0.2-0.3,0.2-0.6,0c-0.2-0.3-0.6-0.6-0.8-0.9c-0.4,0.4-1,0.9-1.3,1.2l-5.8,5.3
				c0.3,0.3,0.5,0.6,0.8,0.9c0.2,0.2,0.1,0.5-0.1,0.6c-0.2,0.1-0.3,0.1-0.5-0.1L104.2,31.9z"/>
			<path id="XMLID_19_" d="M118.8,33c0,0,0.3-0.3,0.7,0.1c0.4,0.7,1,1.6,1.2,2.6c0.2,1.2-0.3,2.5-1.6,3.3c-2.1,1.4-4.4,0.6-5.8-1.5
				l-2.8,1.7c-0.2,0.2-0.6,0.2-0.7-0.1c-0.1-0.1-0.2-0.2-0.1-0.4s0.2-0.2,0.2-0.2C113.2,36.5,116.7,34.4,118.8,33z M114,37
				c1,1.6,2.9,2.2,4.4,1.2c1-0.7,1.4-1.6,1.2-2.5c-0.1-0.5-0.5-1.4-0.7-1.7L114,37z"/>
			<path id="XMLID_18_" d="M119.1,46.3l4.9-1.7c0.2-0.1,0.7-0.2,0.9-0.3c0.2-0.1,0.5,0,0.6,0.2c0.4,1.2,1.3,3.5,1.4,3.9
				c0,0.1-0.2,0.2-0.2,0.3c-0.4,0.2-0.5-0.1-0.6-0.3c-0.2-0.4-0.9-2.6-1.1-3l-0.2-0.2l-4,1.5c0,0,0.8,2.3,1.1,3c0,0,0.1,0.2,0.2,0.3
				c0.1,0.2-0.2,0.3-0.2,0.3c-0.3,0.1-0.5,0-0.6-0.2c-0.2-0.3-1.2-3.2-1.2-3.2l-2.5,0.9l-1.4,0.5c-0.3,0.1-0.2,0.2-0.2,0.4
				c0.2,0.7,0.7,1.8,0.8,2.2l0.5,1.2c0.1,0.2-0.2,0.4-0.2,0.4c-0.2,0.1-0.4,0-0.5-0.2c-0.6-1.4-0.9-2.4-1.4-3.8
				c-0.2-0.4-0.1-0.7,0.3-0.9L119.1,46.3z"/>
		</g>
	</g>
</g>
</svg>
